<?xml version="1.0" encoding="UTF-8"?>
<svg width="28px" height="28px" viewBox="0 0 28 28" version="1.1" xmlns="http://www.w3.org/2000/svg" xmlns:xlink="http://www.w3.org/1999/xlink">
    <!-- Generator: Sketch 45.1 (43504) - http://www.bohemiancoding.com/sketch -->
    <title>if_external_1751501</title>
    <desc>Created with Sketch.</desc>
    <defs></defs>
    <g id="Page-1" stroke="none" stroke-width="1" fill="none" fill-rule="evenodd">
        <g id="if_external_1751501" transform="translate(0.000000, -1.000000)" fill-rule="nonzero" fill="#736EFE">
            <path d="M26.994,1 L18.331,1 C17.775,1 17.325,1.45 17.325,2.006 C17.325,2.562 17.775,3.012 18.331,3.012 L24.843,3.012 L13.112,14.756 C12.924,14.944 12.818,15.2 12.818,15.468 C12.818,15.736 12.924,15.993 13.112,16.18 C13.3,16.367 13.556,16.474 13.825,16.474 C14.094,16.474 14.35,16.368 14.538,16.18 L25.982,4.736 L25.982,10.667 C25.982,11.223 26.432,11.673 26.988,11.673 C27.544,11.673 27.994,11.223 27.994,10.667 L27.994,2.005 C28,1.449 27.55,0.999 26.994,0.999 L26.994,0.999 L26.994,1 Z" id="Shape"></path>
            <path d="M21.012,16.156 C20.456,16.156 20.006,16.606 20.006,17.162 L20.006,26.981 L2.018,26.981 L2.018,8.993 L11.837,8.993 C12.393,8.993 12.843,8.543 12.843,7.987 C12.843,7.431 12.393,6.981 11.837,6.981 L1.006,6.981 C0.45,6.981 1.77635684e-15,7.431 1.77635684e-15,7.987 L1.77635684e-15,27.993 C1.77635684e-15,28.549 0.45,28.999 1.006,28.999 L21.012,28.999 C21.568,28.999 22.018,28.549 22.018,27.993 L22.018,17.162 C22.024,16.612 21.568,16.156 21.012,16.156 Z" id="Shape"></path>
        </g>
    </g>
</svg>